<svg id="Слой_1" data-name="Слой 1" xmlns="http://www.w3.org/2000/svg" viewBox="0 0 129.17 133.49"><defs><style>.cls-1,.cls-2,.cls-3{fill:none;stroke:#fff;}.cls-1{stroke-miterlimit:10;}.cls-1,.cls-3{stroke-width:6px;}.cls-2{stroke-linejoin:bevel;stroke-width:3px;}.cls-3{stroke-linecap:round;stroke-linejoin:round;}</style></defs><title>plag</title><path class="cls-1" d="M287.17,357l-11.34,44.21c-.9,3.49-3.93,5.73-6.76,5l-64-16.43c-2.83-.72-4.4-4.15-3.5-7.64L226.76,284c.9-3.49,3.93-5.74,6.76-5l64,16.42c2.83.73,4.4,4.15,3.5,7.65l-2.37,9.25" transform="translate(-198.32 -275.88)"/><line class="cls-2" x1="33.49" y1="23.2" x2="76.78" y2="34.32"/><line class="cls-2" x1="31.09" y1="32.54" x2="69.8" y2="42.48"/><line class="cls-2" x1="28.69" y1="41.88" x2="64.97" y2="51.2"/><line class="cls-2" x1="26.3" y1="51.22" x2="63.57" y2="60.79"/><line class="cls-2" x1="23.9" y1="60.56" x2="67.19" y2="71.67"/><line class="cls-2" x1="21.5" y1="69.9" x2="79.03" y2="84.67"/><line class="cls-2" x1="19.1" y1="79.24" x2="76.63" y2="94.01"/><line class="cls-2" x1="16.71" y1="88.58" x2="74.24" y2="103.35"/><line class="cls-2" x1="14.31" y1="97.92" x2="71.84" y2="112.69"/><circle class="cls-1" cx="93.43" cy="58.5" r="23.63"/><line class="cls-3" x1="104.29" y1="80.99" x2="126.17" y2="117.91"/></svg>